<svg xmlns="http://www.w3.org/2000/svg" width="20" height="20" viewBox="0 0 20 20" fill="none">
  <path d="M3.54134 13.3333C3.54134 13.675 3.82467 13.9583 4.16634 13.9583H14.3247L13.308 14.975C13.0663 15.2167 13.0663 15.6167 13.308 15.8583C13.433 15.9833 13.5913 16.0417 13.7497 16.0417C13.908 16.0417 14.0663 15.9833 14.1913 15.8583L16.2747 13.775C16.333 13.7167 16.3747 13.65 16.408 13.575C16.4747 13.425 16.4747 13.25 16.408 13.1C16.3747 13.025 16.333 12.9583 16.2747 12.9L14.1913 10.8167C13.9497 10.575 13.5497 10.575 13.308 10.8167C13.0663 11.0583 13.0663 11.4583 13.308 11.7L14.3247 12.7167H4.16634C3.82467 12.7167 3.54134 13 3.54134 13.3417V13.3333ZM15.833 7.29167H5.67467L6.69134 8.30833C6.93301 8.55 6.93301 8.95 6.69134 9.19167C6.56634 9.31667 6.40801 9.375 6.24967 9.375C6.09134 9.375 5.93301 9.31667 5.80801 9.19167L3.72467 7.10833C3.66634 7.05 3.62467 6.98333 3.59134 6.90833C3.52467 6.75833 3.52467 6.58333 3.59134 6.43333C3.62467 6.35833 3.66634 6.29167 3.72467 6.23333L5.80801 4.15C6.04967 3.90833 6.44967 3.90833 6.69134 4.15C6.93301 4.39167 6.93301 4.79167 6.69134 5.03333L5.67467 6.05H15.833C16.1747 6.05 16.458 6.33333 16.458 6.675C16.458 7.01667 16.1747 7.3 15.833 7.3V7.29167Z" fill="white"/>
</svg>